<svg width="142" height="16" viewBox="0 0 142 16" fill="none" xmlns="http://www.w3.org/2000/svg">
<path d="M6.40813 15.2889V2.99799H1.57581V0.711121H13.9475V2.99799H9.1152V15.2889H6.40813Z" fill="#010203"/>
<path d="M15.992 15.2889V0.711121H18.2223L24.598 11.3535H23.4344L29.6889 0.711121H31.9192L31.9435 15.2889H29.3819L29.3576 4.72728H29.899L24.5657 13.6162H23.3617L17.9475 4.72728H18.5697V15.2889H15.9839H15.992Z" fill="#010203"/>
<path d="M39.4585 15.2889V9.5192L40.0646 11.1838L33.7292 0.711121H36.6222L41.705 9.14748H40.0808L45.2121 0.711121H47.8787L41.5515 11.1838L42.1737 9.5192V15.2889H39.4666H39.4585Z" fill="#010203"/>
<path d="M52.1454 15.2889H49.4384V0.711121H60.0808V2.98183H52.1454V15.2889ZM51.9192 7.41819H59.1838V9.70506H51.9192V7.41819Z" fill="#010203"/>
<path d="M62.699 15.2889V0.711121H68.695C69.9879 0.711121 71.095 0.921222 72.0162 1.33334C72.9374 1.75354 73.6485 2.34344 74.1495 3.12728C74.6505 3.90304 74.901 4.82425 74.901 5.899C74.901 6.97375 74.6505 7.88688 74.1495 8.66264C73.6485 9.43031 72.9374 10.0202 72.0162 10.4323C71.095 10.8445 69.9879 11.0465 68.695 11.0465H64.1939L65.398 9.81819V15.297H62.6909L62.699 15.2889ZM65.4061 10.101L64.202 8.80809H68.5737C69.7697 8.80809 70.6667 8.5495 71.2727 8.04041C71.8788 7.52324 72.1778 6.81213 72.1778 5.899C72.1778 4.98587 71.8788 4.25051 71.2727 3.75759C70.6667 3.26466 69.7697 3.00607 68.5737 3.00607H64.202L65.4061 1.67274V10.1091V10.101ZM72.2344 15.2889L68.5495 9.99597H71.4424L75.1515 15.2889H72.2344Z" fill="#010203"/>
<path d="M77.9232 15.2889V0.711121H80.1535L89.2929 11.9354H88.1858V0.711121H90.8687V15.2889H88.6384L79.499 4.06466H80.606V15.2889H77.9232Z" fill="#010203"/>
<path d="M101.543 15.499C100.436 15.499 99.402 15.3131 98.4485 14.9495C97.495 14.5778 96.6707 14.0606 95.9677 13.3899C95.2647 12.7192 94.7232 11.9192 94.3354 11.0061C93.9475 10.0929 93.7535 9.09092 93.7535 8.00809C93.7535 6.92526 93.9475 5.92324 94.3354 5.01011C94.7232 4.09698 95.2727 3.29698 95.9838 2.62627C96.695 1.95557 97.5192 1.43031 98.4647 1.06668C99.4101 0.694959 100.444 0.517181 101.568 0.517181C102.764 0.517181 103.855 0.719202 104.84 1.13132C105.826 1.54344 106.659 2.1495 107.337 2.95759L105.584 4.60607C105.059 4.04041 104.469 3.61213 103.814 3.32122C103.16 3.03839 102.457 2.89294 101.689 2.89294C100.921 2.89294 100.226 3.01415 99.596 3.26466C98.9657 3.51516 98.4162 3.87072 97.9475 4.32324C97.4788 4.78385 97.1232 5.32526 96.8647 5.94748C96.6061 6.56971 96.4768 7.25657 96.4768 8.00809C96.4768 8.75961 96.6061 9.44647 96.8647 10.0687C97.1232 10.6909 97.4788 11.2323 97.9475 11.6929C98.4162 12.1535 98.9576 12.501 99.596 12.7515C100.226 13.002 100.929 13.1232 101.689 13.1232C102.448 13.1232 103.16 12.9778 103.814 12.695C104.469 12.4121 105.059 11.9758 105.584 11.3939L107.337 13.0586C106.659 13.8505 105.826 14.4566 104.84 14.8687C103.855 15.2889 102.756 15.4909 101.552 15.4909L101.543 15.499Z" fill="#010203"/>
<path d="M109.939 15.2889V0.711121H112.17L121.309 11.9354H120.202V0.711121H122.885V15.2889H120.655L111.515 4.06466H112.622V15.2889H109.939Z" fill="#010203"/>
<path d="M126.804 15.2889V0.711121H129.034L138.174 11.9354H137.067V0.711121H139.749V15.2889H137.519L128.38 4.06466H129.487V15.2889H126.804Z" fill="#010203"/>
</svg>
